<svg xmlns="http://www.w3.org/2000/svg" xmlns:xlink="http://www.w3.org/1999/xlink" width="500" zoomAndPan="magnify" viewBox="0 0 375 374.999991" height="500" preserveAspectRatio="xMidYMid meet" version="1.0"><defs><g/></defs><path fill="#ffffff" d="M 143.964844 212.890625 L 145.613281 214.511719 L 145.777344 214.675781 C 150.902344 219.960938 150.847656 228.46875 145.613281 233.679688 C 140.375 238.890625 131.828125 238.941406 126.519531 233.84375 L 126.355469 233.679688 L 124.707031 232.054688 L 120.222656 227.574219 C 114.929688 222.308594 114.929688 213.691406 120.222656 208.410156 C 125.511719 203.144531 134.1875 203.144531 139.480469 208.410156 Z M 234.796875 138.738281 L 236.390625 137.152344 L 238.222656 135.332031 L 255.007812 118.625 C 260.300781 113.359375 260.300781 104.742188 255.007812 99.457031 C 249.699219 94.191406 241.042969 94.191406 235.75 99.457031 L 218.964844 116.164062 L 217.132812 117.988281 L 215.539062 119.574219 L 205.910156 129.15625 C 200.621094 134.421875 200.621094 143.039062 205.910156 148.320312 L 215.539062 157.90625 L 217.261719 159.597656 L 235.878906 178.128906 C 241.167969 183.394531 249.828125 183.394531 255.136719 178.128906 C 260.425781 172.863281 260.425781 164.226562 255.136719 158.960938 L 236.519531 140.433594 Z M 120.992188 99.585938 L 120.992188 99.566406 C 126.28125 94.300781 134.957031 94.300781 140.25 99.566406 L 254.878906 213.671875 C 260.1875 218.9375 260.1875 227.574219 254.878906 232.839844 C 249.589844 238.105469 240.929688 238.105469 235.621094 232.839844 L 120.992188 118.734375 C 115.699219 113.46875 115.699219 104.851562 120.992188 99.585938 Z M 120.824219 154.207031 C 126.117188 148.941406 134.773438 148.941406 140.082031 154.207031 L 153.136719 167.195312 L 181.382812 195.308594 L 200 213.835938 C 205.289062 219.101562 205.289062 227.738281 200 233.003906 C 194.691406 238.269531 186.03125 238.269531 180.742188 233.003906 L 162.125 214.476562 L 133.878906 186.363281 L 120.824219 173.375 C 115.535156 168.109375 115.535156 159.472656 120.824219 154.207031 Z M 120.824219 154.207031 " fill-opacity="1" fill-rule="evenodd"/><g fill="#ffffff" fill-opacity="1"><g transform="translate(133.315169, 274.374379)"><g><path d="M 1.671875 0 L 1.671875 -17.28125 L 4.84375 -17.28125 L 4.84375 -10.296875 L 11.234375 -17.28125 L 15.140625 -17.28125 L 8.765625 -10.421875 L 15.3125 0 L 11.4375 0 L 6.5 -8 L 4.84375 -6.203125 L 4.84375 0 Z M 1.671875 0 "/></g></g></g><g fill="#ffffff" fill-opacity="1"><g transform="translate(152.93759, 274.374379)"><g><path d="M 0.5625 0 L 6.890625 -17.28125 L 10.4375 -17.28125 L 16.765625 0 L 13.40625 0 L 12.015625 -4 L 5.28125 -4 L 3.875 0 Z M 6.140625 -6.46875 L 11.15625 -6.46875 L 8.640625 -13.65625 Z M 6.140625 -6.46875 "/></g></g></g><g fill="#ffffff" fill-opacity="1"><g transform="translate(174.065441, 274.374379)"><g><path d="M 1.671875 0 L 1.671875 -17.28125 L 4.84375 -17.28125 L 4.84375 0 Z M 1.671875 0 "/></g></g></g><g fill="#ffffff" fill-opacity="1"><g transform="translate(184.408454, 274.374379)"><g><path d="M 1.671875 0 L 1.671875 -17.28125 L 8.03125 -17.28125 C 9.40625 -17.28125 10.539062 -17.046875 11.4375 -16.578125 C 12.332031 -16.109375 13.003906 -15.472656 13.453125 -14.671875 C 13.898438 -13.878906 14.125 -12.992188 14.125 -12.015625 C 14.125 -10.960938 13.847656 -10 13.296875 -9.125 C 12.742188 -8.257812 11.882812 -7.628906 10.71875 -7.234375 L 14.296875 0 L 10.671875 0 L 7.453125 -6.8125 L 4.84375 -6.8125 L 4.84375 0 Z M 4.84375 -9.140625 L 7.828125 -9.140625 C 8.878906 -9.140625 9.648438 -9.394531 10.140625 -9.90625 C 10.640625 -10.414062 10.890625 -11.085938 10.890625 -11.921875 C 10.890625 -12.742188 10.644531 -13.398438 10.15625 -13.890625 C 9.675781 -14.390625 8.890625 -14.640625 7.796875 -14.640625 L 4.84375 -14.640625 Z M 4.84375 -9.140625 "/></g></g></g><g fill="#ffffff" fill-opacity="1"><g transform="translate(203.611327, 274.374379)"><g><path d="M 9.78125 0.296875 C 8.050781 0.296875 6.539062 -0.078125 5.25 -0.828125 C 3.957031 -1.585938 2.941406 -2.640625 2.203125 -3.984375 C 1.472656 -5.328125 1.109375 -6.878906 1.109375 -8.640625 C 1.109375 -10.398438 1.472656 -11.953125 2.203125 -13.296875 C 2.941406 -14.640625 3.957031 -15.6875 5.25 -16.4375 C 6.539062 -17.195312 8.050781 -17.578125 9.78125 -17.578125 C 11.488281 -17.578125 12.992188 -17.195312 14.296875 -16.4375 C 15.597656 -15.6875 16.609375 -14.640625 17.328125 -13.296875 C 18.054688 -11.953125 18.421875 -10.398438 18.421875 -8.640625 C 18.421875 -6.878906 18.054688 -5.328125 17.328125 -3.984375 C 16.609375 -2.640625 15.597656 -1.585938 14.296875 -0.828125 C 12.992188 -0.078125 11.488281 0.296875 9.78125 0.296875 Z M 9.78125 -2.546875 C 11.425781 -2.546875 12.738281 -3.085938 13.71875 -4.171875 C 14.695312 -5.253906 15.1875 -6.742188 15.1875 -8.640625 C 15.1875 -10.535156 14.695312 -12.023438 13.71875 -13.109375 C 12.738281 -14.191406 11.425781 -14.734375 9.78125 -14.734375 C 8.132812 -14.734375 6.816406 -14.191406 5.828125 -13.109375 C 4.835938 -12.023438 4.34375 -10.535156 4.34375 -8.640625 C 4.34375 -6.742188 4.835938 -5.253906 5.828125 -4.171875 C 6.816406 -3.085938 8.132812 -2.546875 9.78125 -2.546875 Z M 9.78125 -2.546875 "/></g></g></g><g fill="#ffffff" fill-opacity="1"><g transform="translate(226.960318, 274.374379)"><g><path d="M 7.578125 0.296875 C 6.304688 0.296875 5.1875 0.078125 4.21875 -0.359375 C 3.25 -0.796875 2.484375 -1.421875 1.921875 -2.234375 C 1.367188 -3.046875 1.082031 -4.035156 1.0625 -5.203125 L 4.390625 -5.203125 C 4.421875 -4.398438 4.710938 -3.722656 5.265625 -3.171875 C 5.816406 -2.617188 6.578125 -2.34375 7.546875 -2.34375 C 8.390625 -2.34375 9.054688 -2.546875 9.546875 -2.953125 C 10.046875 -3.359375 10.296875 -3.894531 10.296875 -4.5625 C 10.296875 -5.269531 10.078125 -5.820312 9.640625 -6.21875 C 9.203125 -6.613281 8.617188 -6.929688 7.890625 -7.171875 C 7.171875 -7.421875 6.398438 -7.6875 5.578125 -7.96875 C 4.242188 -8.4375 3.226562 -9.03125 2.53125 -9.75 C 1.832031 -10.476562 1.484375 -11.441406 1.484375 -12.640625 C 1.460938 -13.660156 1.703125 -14.535156 2.203125 -15.265625 C 2.710938 -16.003906 3.398438 -16.570312 4.265625 -16.96875 C 5.140625 -17.375 6.144531 -17.578125 7.28125 -17.578125 C 8.4375 -17.578125 9.453125 -17.367188 10.328125 -16.953125 C 11.210938 -16.546875 11.90625 -15.972656 12.40625 -15.234375 C 12.90625 -14.492188 13.171875 -13.613281 13.203125 -12.59375 L 9.828125 -12.59375 C 9.804688 -13.195312 9.566406 -13.734375 9.109375 -14.203125 C 8.660156 -14.671875 8.035156 -14.90625 7.234375 -14.90625 C 6.546875 -14.925781 5.96875 -14.757812 5.5 -14.40625 C 5.03125 -14.050781 4.796875 -13.535156 4.796875 -12.859375 C 4.796875 -12.285156 4.972656 -11.828125 5.328125 -11.484375 C 5.691406 -11.148438 6.1875 -10.867188 6.8125 -10.640625 C 7.4375 -10.410156 8.15625 -10.164062 8.96875 -9.90625 C 9.820312 -9.601562 10.601562 -9.253906 11.3125 -8.859375 C 12.019531 -8.460938 12.585938 -7.9375 13.015625 -7.28125 C 13.441406 -6.632812 13.65625 -5.804688 13.65625 -4.796875 C 13.65625 -3.890625 13.421875 -3.046875 12.953125 -2.265625 C 12.492188 -1.492188 11.8125 -0.875 10.90625 -0.40625 C 10 0.0625 8.890625 0.296875 7.578125 0.296875 Z M 7.578125 0.296875 "/></g></g></g></svg>